<svg width="80" height="80" viewBox="0 0 80 80" fill="none" xmlns="http://www.w3.org/2000/svg">
<path d="M71.374 70.5412C76.138 70.5412 80 66.7366 80 62.0434C80 57.3502 76.138 53.5456 71.374 53.5456C66.6099 53.5456 62.7479 57.3502 62.7479 62.0434C62.7479 66.7366 66.6099 70.5412 71.374 70.5412Z" fill="#ED5945"/>
<path d="M60.2451 62.0434C60.2451 55.9879 65.227 51.08 71.3739 51.08C72.8349 51.08 74.2295 51.3599 75.5082 51.8661C76.0552 49.3958 76.3464 46.8323 76.3464 44.1987C76.3464 38.2388 74.8665 32.6195 72.25 27.6743L59.5844 35.0758C60.9175 37.8423 61.6658 40.9354 61.6658 44.1987C61.6658 55.8502 52.1376 65.351 40.3552 65.5377V80C49.6513 79.9113 58.1093 76.3867 64.4906 70.6531C61.9073 68.6471 60.2451 65.5377 60.2451 62.0434Z" fill="#474747"/>
<path d="M18.3342 44.1987C18.3342 41.1057 19.0067 38.1642 20.2143 35.5073L7.45869 28.2389C5.02455 33.0441 3.65356 38.4651 3.65356 44.2011C3.65356 46.8323 3.94244 49.3982 4.48941 51.8684C5.76805 51.3646 7.16271 51.0823 8.62604 51.0823C14.773 51.0823 19.7549 55.9902 19.7549 62.0457C19.7549 65.54 18.095 68.6494 15.5094 70.6578C21.5071 76.0485 29.3447 79.4868 37.9873 79.9534V65.4537C26.9816 64.446 18.3342 55.2997 18.3342 44.1987Z" fill="#474747"/>
<path d="M8.62606 70.5412C13.3901 70.5412 17.2521 66.7366 17.2521 62.0434C17.2521 57.3502 13.3901 53.5456 8.62606 53.5456C3.86202 53.5456 0 57.3502 0 62.0434C0 66.7366 3.86202 70.5412 8.62606 70.5412Z" fill="#4575A8"/>
<path d="M50.9158 10.0396C50.2125 15.4257 45.5408 19.5894 39.8816 19.5894C34.2461 19.5894 29.5933 15.463 28.8569 10.112C20.2593 12.8388 13.0587 18.6307 8.58344 26.1838L21.2988 33.4313C25.0636 27.1099 32.0369 22.8551 39.9976 22.8551C47.7878 22.8551 54.6309 26.9279 58.4502 33.0254L71.0874 25.6403C66.5577 18.2855 59.4069 12.6709 50.9158 10.0396Z" fill="#474747"/>
<path d="M39.8817 17.2522C44.7176 17.2522 48.6379 13.3901 48.6379 8.62608C48.6379 3.86203 44.7176 0 39.8817 0C35.0457 0 31.1254 3.86203 31.1254 8.62608C31.1254 13.3901 35.0457 17.2522 39.8817 17.2522Z" fill="#FFC101"/>
</svg>
