<svg xmlns="http://www.w3.org/2000/svg" xmlns:xlink="http://www.w3.org/1999/xlink" version="1.1" width="343" height="343" style=""> <rect id="backgroundrect" width="100%" height="100%" x="0" y="0" fill="none" stroke="none"/>
<style type="text/css">
	.st0{fill:#ED5945;}
	.st1{fill:#222222;}
	.st2{fill:#4575A8;}
	.st3{fill:#FFC101;}

</style>







<g class="currentLayer" style=""><title>Layer 1</title><g id="svg_1" class="">
	<circle class="st0 redDot" cx="301.42999267578125" cy="265.97999572753906" r="36.43000030517578" id="svg_2"/>
</g><path class="st1" d="M254.42998535156255,265.97998962402346 c0,-25.96 21.04,-47 47,-47 c6.17,0 12.06,1.2 17.46,3.37 c2.31,-10.59 3.54,-21.58 3.54,-32.87 c0,-25.55 -6.25,-49.64 -17.3,-70.84 l-53.49,31.73 c5.63,11.86 8.79,25.12 8.79,39.11 c0,49.95 -40.24,90.68 -90,91.48 v62 c39.26,-0.38000000000000006 74.98,-15.49 101.93,-40.07 C261.44998535156253,294.2899896240234 254.42998535156255,280.9599896240234 254.42998535156255,265.97998962402346 z" id="svg_3"/><path class="st1" d="M77.4299853515625,189.47998962402346 c0,-13.26 2.84,-25.87 7.94,-37.26 l-53.87,-31.16 c-10.28,20.6 -16.07,43.84 -16.07,68.43 c0,11.28 1.22,22.28 3.5300000000000002,32.87 c5.4,-2.16 11.29,-3.37 17.47,-3.37 c25.96,0 47,21.04 47,47 c0,14.98 -7.01,28.31 -17.93,36.92 c25.33,23.11 58.43,37.85 94.93,39.85 v-62.16 C113.94998535156247,276.2799896240234 77.4299853515625,237.06998962402344 77.4299853515625,189.47998962402346 z" id="svg_4"/><g id="svg_5" class="">
	<circle class="st2 blueDot" cx="36.42999267578125" cy="265.97999572753906" r="36.43000030517578" id="svg_6"/>
</g><path class="st1" d="M215.02998535156246,43.03998962402346 c-2.9699999999999998,23.09 -22.7,40.94 -46.6,40.94 c-23.8,0 -43.45,-17.69 -46.56,-40.63 c-36.31,11.69 -66.72,36.52 -85.62,68.9 l53.7,31.07 c15.9,-27.1 45.35,-45.34 78.97,-45.34 c32.9,0 61.8,17.46 77.93,43.6 l53.37,-31.66 C281.0899853515625,78.38998962402343 250.88998535156247,54.319989624023435 215.02998535156246,43.03998962402346 z" id="svg_7"/><g id="svg_8" class="">
	<circle class="st3 yellowDot" cx="168.42999267578125" cy="36.97999572753906" r="36.97999954223633" id="svg_9"/>
</g></g></svg>