<?xml version="1.0" encoding="utf-8"?>
<!-- Generator: Adobe Illustrator 23.1.0, SVG Export Plug-In . SVG Version: 6.00 Build 0)  -->
<svg version="1.1" id="Calque_1" xmlns="http://www.w3.org/2000/svg" xmlns:xlink="http://www.w3.org/1999/xlink" x="0px" y="0px"
	 viewBox="0 0 1024 1024" style="enable-background:new 0 0 1024 1024;" xml:space="preserve">
<style type="text/css">
	.st0{fill:#222222;}
</style>
<circle class="st0" cx="644.57" cy="495.35" r="36.43"/>
<path class="st0" d="M597.57,495.35c0-25.96,21.04-47,47-47c6.17,0,12.06,1.2,17.46,3.37c2.31-10.59,3.54-21.58,3.54-32.87
	c0-25.55-6.25-49.64-17.3-70.84l-53.49,31.73c5.63,11.86,8.79,25.12,8.79,39.11c0,49.95-40.24,90.68-90,91.48v62
	c39.26-0.38,74.98-15.49,101.93-40.07C604.59,523.66,597.57,510.33,597.57,495.35z"/>
<path class="st0" d="M420.57,418.85c0-13.26,2.84-25.87,7.94-37.26l-53.87-31.16c-10.28,20.6-16.07,43.84-16.07,68.43
	c0,11.28,1.22,22.28,3.53,32.87c5.4-2.16,11.29-3.37,17.47-3.37c25.96,0,47,21.04,47,47c0,14.98-7.01,28.31-17.93,36.92
	c25.33,23.11,58.43,37.85,94.93,39.85v-62.16C457.09,505.65,420.57,466.44,420.57,418.85z"/>
<circle class="st0" cx="379.57" cy="495.35" r="36.43"/>
<path class="st0" d="M558.17,272.41c-2.97,23.09-22.7,40.94-46.6,40.94c-23.8,0-43.45-17.69-46.56-40.63
	c-36.31,11.69-66.72,36.52-85.62,68.9l53.7,31.07c15.9-27.1,45.35-45.34,78.97-45.34c32.9,0,61.8,17.46,77.93,43.6l53.37-31.66
	C624.23,307.76,594.03,283.69,558.17,272.41z"/>
<circle class="st0" cx="511.57" cy="266.35" r="36.98"/>
<g>
	<path class="st0" d="M333.99,633.42c17.49,0,31.57,4.96,42.24,14.88c10.67,9.92,16,22.83,16,38.72s-5.33,28.8-16,38.72
		c-10.67,9.92-24.75,14.88-42.24,14.88h-48.16v-107.2H333.99z M330.79,711.5c7.68,0,13.89-2.29,18.64-6.88
		c4.75-4.59,7.12-10.45,7.12-17.6c0-7.15-2.37-13.01-7.12-17.6c-4.75-4.59-10.96-6.88-18.64-6.88h-9.6v48.96H330.79z"/>
	<path class="st0" d="M401.82,740.62v-107.2h35.36v107.2H401.82z"/>
	<path class="st0" d="M521.82,740.62H487.1l-44.32-107.2h39.36l22.4,56.96l22.24-56.96h39.36L521.82,740.62z"/>
	<path class="st0" d="M571.74,740.62v-107.2h35.36v107.2H571.74z"/>
	<path class="st0" d="M733.02,675.98c0.53,5.01,0.8,8.69,0.8,11.04c0,16.75-5.39,30.27-16.16,40.56
		c-10.77,10.29-24.69,15.44-41.76,15.44c-16.64,0-30.67-5.41-42.08-16.24c-11.41-10.83-17.12-24.08-17.12-39.76
		c0-15.68,5.71-28.93,17.12-39.76c11.41-10.83,25.44-16.24,42.08-16.24c13.12,0,24.51,2.88,34.16,8.64
		c9.65,5.76,16.24,13.55,19.76,23.36l-37.12,8.32c-3.09-5.97-8.69-8.96-16.8-8.96c-6.93,0-12.61,2.35-17.04,7.04
		c-4.43,4.69-6.64,10.56-6.64,17.6s2.21,12.91,6.64,17.6s10.11,7.04,17.04,7.04c8.21,0,14.45-2.61,18.72-7.84h-21.6v-27.84H733.02z"
		/>
</g>
<g>
	<path class="st0" d="M360.65,773.97c2.25,1.67,3.66,3.9,4.23,6.7l-3.95,0.9c-0.37-2.03-1.33-3.65-2.9-4.85
		c-1.57-1.2-3.5-1.8-5.8-1.8c-2.27,0-4.1,0.56-5.5,1.68c-1.4,1.12-2.1,2.58-2.1,4.38c0,1.43,0.42,2.54,1.27,3.33
		s2.11,1.34,3.78,1.67l7.3,1.65c5.63,1.2,8.45,4.1,8.45,8.7c0,3.03-1.13,5.45-3.4,7.25c-2.27,1.8-5.28,2.7-9.05,2.7
		c-3.63,0-6.71-0.89-9.23-2.68c-2.52-1.78-3.98-4.22-4.38-7.33l4.15-0.85c0.37,2.33,1.43,4.14,3.2,5.42s3.97,1.92,6.6,1.92
		c2.53,0,4.53-0.57,5.98-1.72s2.18-2.66,2.18-4.53c0-1.53-0.43-2.68-1.28-3.45s-2.24-1.37-4.18-1.8l-7.55-1.65
		c-5.37-1.2-8.05-4.05-8.05-8.55c0-2.87,1.09-5.18,3.27-6.95c2.18-1.77,5.06-2.65,8.63-2.65
		C355.62,771.47,358.4,772.3,360.65,773.97z"/>
	<path class="st0" d="M409.47,805.62h-24.45v-33.5h24.4v3.55h-20.45v11.35h19v3.55h-19v11.45h20.5V805.62z"/>
	<path class="st0" d="M452.27,805.62l-12.8-14.35h-6.15v14.35h-3.95v-33.5h15.5c3.27,0,5.91,0.88,7.93,2.63s3.03,4.06,3.03,6.93
		c0,2.87-1.01,5.18-3.03,6.95s-4.66,2.65-7.93,2.65h-0.6l12.95,14.35H452.27z M444.87,787.67c2.1,0,3.79-0.55,5.08-1.65
		c1.28-1.1,1.93-2.55,1.93-4.35c0-1.8-0.64-3.25-1.93-4.35c-1.28-1.1-2.98-1.65-5.08-1.65h-11.55v12H444.87z"/>
	<path class="st0" d="M488.52,805.62h-3.8l-14.6-33.5h4.3l12.2,28.1l12.2-28.1h4.3L488.52,805.62z"/>
	<path class="st0" d="M520.92,805.62v-33.5h3.95v33.5H520.92z"/>
	<path class="st0" d="M569.5,800.35c2.15-1.48,3.66-3.59,4.53-6.33l3.8,0.9c-1.03,3.5-2.98,6.27-5.85,8.3
		c-2.87,2.03-6.23,3.05-10.1,3.05c-4.87,0-8.98-1.68-12.35-5.05c-3.37-3.37-5.05-7.48-5.05-12.35s1.68-8.98,5.05-12.35
		c3.37-3.37,7.48-5.05,12.35-5.05c3.83,0,7.19,1.01,10.08,3.03c2.88,2.02,4.84,4.71,5.88,8.08l-3.8,1.1
		c-0.83-2.67-2.33-4.75-4.5-6.25c-2.17-1.5-4.72-2.25-7.65-2.25c-3.77,0-6.94,1.32-9.53,3.95c-2.58,2.63-3.88,5.88-3.88,9.75
		c0,3.83,1.29,7.08,3.88,9.73c2.58,2.65,5.76,3.98,9.53,3.98C564.81,802.57,567.35,801.83,569.5,800.35z"/>
	<path class="st0" d="M621.92,805.62h-24.45v-33.5h24.4v3.55h-20.45v11.35h19v3.55h-19v11.45h20.5V805.62z"/>
	<path class="st0" d="M661.3,773.97c2.25,1.67,3.66,3.9,4.23,6.7l-3.95,0.9c-0.37-2.03-1.33-3.65-2.9-4.85
		c-1.57-1.2-3.5-1.8-5.8-1.8c-2.27,0-4.1,0.56-5.5,1.68c-1.4,1.12-2.1,2.58-2.1,4.38c0,1.43,0.42,2.54,1.28,3.33
		c0.85,0.78,2.11,1.34,3.77,1.67l7.3,1.65c5.63,1.2,8.45,4.1,8.45,8.7c0,3.03-1.13,5.45-3.4,7.25c-2.27,1.8-5.28,2.7-9.05,2.7
		c-3.63,0-6.71-0.89-9.23-2.68c-2.52-1.78-3.98-4.22-4.38-7.33l4.15-0.85c0.37,2.33,1.43,4.14,3.2,5.42
		c1.77,1.28,3.97,1.92,6.6,1.92c2.53,0,4.53-0.57,5.98-1.72s2.17-2.66,2.17-4.53c0-1.53-0.42-2.68-1.27-3.45
		c-0.85-0.77-2.24-1.37-4.18-1.8l-7.55-1.65c-5.37-1.2-8.05-4.05-8.05-8.55c0-2.87,1.09-5.18,3.28-6.95
		c2.18-1.77,5.06-2.65,8.63-2.65C656.27,771.47,659.05,772.3,661.3,773.97z"/>
</g>
</svg>
