<?xml version="1.0" encoding="utf-8"?>
<!-- Generator: Adobe Illustrator 23.1.0, SVG Export Plug-In . SVG Version: 6.00 Build 0)  -->
<svg version="1.1" id="Calque_1" xmlns="http://www.w3.org/2000/svg" xmlns:xlink="http://www.w3.org/1999/xlink" x="0px" y="0px"
	 viewBox="0 0 1024 1024" style="enable-background:new 0 0 1024 1024;" xml:space="preserve">
<style type="text/css">
	.st0{fill:#ED5945;}
	.st1{fill:#222222;}
	.st2{fill:#4575A8;}
	.st3{fill:#FFC101;}

</style>

<g>
	<circle class="st0 redDot" cx="644.57" cy="495.35" r="36.43"/>
</g>
<path class="st1" d="M597.57,495.35c0-25.96,21.04-47,47-47c6.17,0,12.06,1.2,17.46,3.37c2.31-10.59,3.54-21.58,3.54-32.87
	c0-25.55-6.25-49.64-17.3-70.84l-53.49,31.73c5.63,11.86,8.79,25.12,8.79,39.11c0,49.95-40.24,90.68-90,91.48v62
	c39.26-0.38,74.98-15.49,101.93-40.07C604.59,523.66,597.57,510.33,597.57,495.35z"/>
<path class="st1" d="M420.57,418.85c0-13.26,2.84-25.87,7.94-37.26l-53.87-31.16c-10.28,20.6-16.07,43.84-16.07,68.43
	c0,11.28,1.22,22.28,3.53,32.87c5.4-2.16,11.29-3.37,17.47-3.37c25.96,0,47,21.04,47,47c0,14.98-7.01,28.31-17.93,36.92
	c25.33,23.11,58.43,37.85,94.93,39.85v-62.16C457.09,505.65,420.57,466.44,420.57,418.85z"/>
<g>
	<circle class="st2 blueDot" cx="379.57" cy="495.35" r="36.43"/>
</g>
<path class="st1" d="M558.17,272.41c-2.97,23.09-22.7,40.94-46.6,40.94c-23.8,0-43.45-17.69-46.56-40.63
	c-36.31,11.69-66.72,36.52-85.62,68.9l53.7,31.07c15.9-27.1,45.35-45.34,78.97-45.34c32.9,0,61.8,17.46,77.93,43.6l53.37-31.66
	C624.23,307.76,594.03,283.69,558.17,272.41z"/>
<g>
	<circle class="st3 yellowDot" cx="511.57" cy="266.35" r="36.98"/>
</g>
</svg>
