<?xml version="1.0" encoding="utf-8"?>
<!-- Generator: Adobe Illustrator 23.1.0, SVG Export Plug-In . SVG Version: 6.00 Build 0)  -->
<svg version="1.1" id="Calque_1" xmlns="http://www.w3.org/2000/svg" xmlns:xlink="http://www.w3.org/1999/xlink" x="0px" y="0px"
	 viewBox="0 0 1024 1024" style="enable-background:new 0 0 1024 1024;" xml:space="preserve">
<style type="text/css">
	.st0{fill:#FFFFFF;}
</style>
<path class="st0" d="M884.51,650.79c5.74-26.3,8.79-53.61,8.79-81.64c0-63.47-15.53-123.31-42.96-175.96l-132.88,78.81
	c13.99,29.47,21.84,62.41,21.84,97.14c0,124.08-99.95,225.24-223.56,227.24v154.01c97.51-0.94,186.26-38.47,253.18-99.53
	c19.87,15.68,44.95,25.06,72.22,25.06c64.48,0,116.75-52.27,116.75-116.75C957.88,710.04,927.5,668.01,884.51,650.79z
	 M841.13,851.09c-50.68,0-91.91-41.23-91.91-91.91c0-50.68,41.23-91.91,91.91-91.91c50.68,0,91.91,41.23,91.91,91.91
	C933.04,809.86,891.81,851.09,841.13,851.09z"/>
<path class="st0" d="M284.71,569.16c0-32.95,7.05-64.27,19.72-92.56l-133.81-77.41c-25.53,51.18-39.92,108.89-39.92,169.97
	c0,28.03,3.04,55.34,8.78,81.64c-42.99,17.22-73.36,59.24-73.36,108.39c0,64.48,52.27,116.75,116.75,116.75
	c27.27,0,52.34-9.38,72.22-25.05c62.92,57.41,145.15,94.03,235.8,98.98V795.45C375.42,784.77,284.71,687.36,284.71,569.16z
	 M182.87,851.09c-50.68,0-91.91-41.23-91.91-91.91c0-50.68,41.23-91.91,91.91-91.91c50.68,0,91.91,41.23,91.91,91.91
	C274.78,809.86,233.55,851.09,182.87,851.09z"/>
<path class="st0" d="M626.51,205.39c0.63-4.93,1-9.94,1-15.05c0-64.48-52.27-116.75-116.75-116.75
	c-64.48,0-116.75,52.27-116.75,116.75c0,5.37,0.39,10.64,1.1,15.82c-90.2,29.03-165.75,90.71-212.67,171.16l133.4,77.17
	c39.5-67.32,112.64-112.62,196.17-112.62c81.73,0,153.52,43.37,193.58,108.31l132.58-78.63
	C790.59,293.21,715.59,233.41,626.51,205.39z M510.76,282.25c-50.68,0-91.91-41.23-91.91-91.91c0-50.68,41.23-91.91,91.91-91.91
	c50.68,0,91.91,41.23,91.91,91.91C602.67,241.02,561.44,282.25,510.76,282.25z"/>
</svg>
